<?xml version="1.0" encoding="utf-8"?>
<!-- Generator: Adobe Illustrator 23.1.1, SVG Export Plug-In . SVG Version: 6.00 Build 0)  -->
<svg version="1.1" id="Layer_1" xmlns="http://www.w3.org/2000/svg" xmlns:xlink="http://www.w3.org/1999/xlink" x="0px" y="0px"
	 viewBox="0 0 1255 842" style="enable-background:new 0 0 1255 842;" xml:space="preserve">
<style type="text/css">
	.st0{opacity:0.15;clip-path:url(#SVGID_2_);enable-background:new    ;}
	.st1{clip-path:url(#SVGID_4_);}
	.st2{clip-path:url(#SVGID_6_);fill:#FFFFFF;}
	.st3{clip-path:url(#SVGID_6_);}
	.st4{clip-path:url(#SVGID_8_);fill:#D6BC00;}
	.st5{opacity:0.8706;clip-path:url(#SVGID_8_);}
</style>
<g>
	<defs>
		<rect id="SVGID_1_" width="1255" height="842"/>
	</defs>
	<clipPath id="SVGID_2_">
		<use xlink:href="#SVGID_1_"  style="overflow:visible;"/>
	</clipPath>
	<g class="st0">
		<g>
			<defs>
				<rect id="SVGID_3_" x="260" width="757" height="842"/>
			</defs>
			<clipPath id="SVGID_4_">
				<use xlink:href="#SVGID_3_"  style="overflow:visible;"/>
			</clipPath>
			<g class="st1">
				<defs>
					<rect id="SVGID_5_" x="207" width="842" height="842"/>
				</defs>
				<clipPath id="SVGID_6_">
					<use xlink:href="#SVGID_5_"  style="overflow:visible;"/>
				</clipPath>
				<path class="st2" d="M816.3,583.2c-2.8,7.3-7-3.4-2-4.8C816,579,816.9,581.5,816.3,583.2z M731.8,581c-3.1,0-3.1-6.5,0-6.7
					C734.9,574,734.7,581.3,731.8,581z M921,819.8c3.6-60.1-9.8-129.7-73.8-117c136.1,3.1,133.6-212.5,6.7-229
					C742.8,439.5,607.8,570,701.5,667.7c4.2-9.3,4.2-23.3,14.6-25c4.2-0.3,10.1-1.1,9.8,4.8c4.5,6.7,4.2-5.3,8.7-5.6
					c5.3,0.3,15.4-2.5,14.6,5.6c16,5.6,4.2-97.1,33.4-61.7c2.2,19.1-26.4,86.2,10.7,67.1c19.9-11.5,28.6,19.6,14.6,30
					c-17.4,11.8-23.3,3.1-28.1,26.4c6.7,10.9-3.1,18-2.2,26.4c2.2,10.7-9,13.8-11.5,22.2c-2.5,57.5-88.7-2.5-82,65.1l157.2-0.6
					c-1.4-17.7,0.6-35.6-3.1-53c14.9,78.3-12.1,47.4,82.8,52.8C920.7,821.5,921,820.7,921,819.8z"/>
				<path class="st3" d="M711.9,650.6c4.2-1.7,13.2,1.1,11.8-5.3C718.7,644.4,710.2,643.6,711.9,650.6z M746.4,649.2
					c3.6-7.9-5.9-4.8-9.8-5.3C727.4,648.6,742.2,649.5,746.4,649.2z M783.8,688.8c8.7-0.6,17.1-1.7,23.9-8.7
					C800.6,670.2,775.9,675.3,783.8,688.8z M809,677.8c21.9-30.6-39.9-31.2-25.3-2.8C792.2,672.2,801.7,670.8,809,677.8z
					 M711.1,782.5c24.4,3.6,53.6,5.3,53.3-26.9c-10.1,2.2-12.9,7.6-14.3,16.8c-4.2,6.5,0-7.9,0.8-11.5
					C736.3,766.8,723.7,774.1,711.1,782.5z M768.9,581.3c-17.7,38.7-3.9,119,7.9,33.7C776.2,604.3,789.7,575.1,768.9,581.3z
					 M780.1,658.7c-30.3-9.5-80.6-20.8-79.4,24.4C721.7,662.1,772.8,677,780.1,658.7z M699.6,676.7c-101.3,15.2-130.5,213.9-2,111.7
					c12.1-16.6,114-45.2,63.7-55.6c19.9,0.8,30-25,5.1-21.6c2-4.5,10.9,0,13.2-4.8c6.2-14,2-20.5-13.2-19.6
					c53.3-18-48.3-44.1-127.4,57.3C654.4,717.7,688.9,703.6,699.6,676.7z M700.1,674.2c-102.4-120.7,64-255.4,188-191.1
					c85.9,41,88.1,182.2-3.4,217.8c40.1,22.5,40.4,81.1,37.6,121.5c-1.7-49.1-2-137-74.7-117.6c40.1,0.8,103.8-42.1,103.3-99.6
					c12.3-233.8-395.5-126.9-249.2,62.3c4.2-9.3,4.2-23.3,14.6-25c4.2-0.3,10.1-1.1,9.8,4.8c4.5,7,4.2-5.3,8.7-5.6
					c5.3,0.3,15.4-2.5,14.6,5.6c14.3-2,7.3-53,19.1-68.8c21.6-6.2,12.1,20.5,11.2,32.3c-0.6,16.3-16.6,59.5,14,41.8
					c33.1-11.8,23.6,41.3-4.2,38.2c-14.9,3.4,0.3,32-12.3,40.4c4.8,16.6-15.2,25-14.6,42.1c-14.9,28.9-56.4-3.4-74.7,25.3
					c-2.8,17.7-4.5,37.6-3.6,3.6C556.7,874.3,611.7,680.3,700.1,674.2z"/>
				<path class="st3" d="M843.6,824.3c-5.6-16.6,0.3-37-4.8-55C848,784.2,842.4,806.6,843.6,824.3z"/>
				<path class="st3" d="M812.1,582.4c0-2.8,3.1-5.6,4.5-1.7C818,584.6,811.8,588.6,812.1,582.4z"/>
				<path class="st3" d="M734.1,577.3c0.3,4.5-4.5,4.8-4.5,0.6C729.3,574,734.4,572.8,734.1,577.3z"/>
				<path class="st2" d="M699.6,676.7c-10.7,27.2-44.9,41.3-60.3,67.1c79.1-101.3,180.5-75.2,127.4-57.3
					c15.2-0.8,19.4,5.6,13.2,19.6c-2.2,4.8-11.2,0.3-13.2,4.8c25-3.4,14.9,22.7-5.1,21.6c50.5,10.4-51.6,39-63.7,55.6
					C568.8,890.6,598.2,691.6,699.6,676.7z"/>
				<path class="st2" d="M766.1,664.6c2.5-3.4,2.8-5.9,0.8-7.9C766.4,659.3,765.5,661.5,766.1,664.6z M780.1,658.7
					c-7.3,18.2-58.4,3.4-79.4,24.4C699.6,638,749.8,649.2,780.1,658.7z"/>
				<path class="st2" d="M768.9,581.3c20.8-6.2,7.3,23,7.9,33.7C765,700.3,751.2,620,768.9,581.3z"/>
				<path class="st2" d="M711.1,782.5c12.6-8.4,25.3-15.7,39.9-21.6c-0.8,3.6-5.3,18-0.8,11.5c1.7-9.5,4.5-14.9,14.3-16.8
					C764.7,787.8,735.5,786.1,711.1,782.5z"/>
				<path class="st2" d="M792.8,659.3c-0.3,0-0.3-0.3-0.6-0.3C792.2,670.5,793,671.4,792.8,659.3z M788.5,670c0-2.8,0-5.6,0-8.4
					C788,664.3,787.4,667.1,788.5,670z M784.9,663.2c-1.1,1.7-1.1,5.9,0,8.7C784.9,668.5,784.9,665.7,784.9,663.2z M800.9,669.4
					c1.1-2.5,1.1-10.7,0-13.2C800.9,660.7,800.9,664.9,800.9,669.4z M809.3,660.7c-1.1,4.5-1.1,9.8,0,12.3
					C809.3,669.1,809.3,665.2,809.3,660.7z M804.5,670.8c2.2-2,0.3-9,0.8-12.6C804.8,662.4,804.5,666.6,804.5,670.8z M797,658.2
					c-0.6,3.6-0.8,7.3-0.3,10.9C797.8,665.5,797.2,661.8,797,658.2z M809,677.8c-7.3-7.3-16.8-5.6-25.3-2.8
					C769.5,646.7,830.9,647.2,809,677.8z"/>
				<path class="st2" d="M783.8,688.8c-7.9-13.5,16.8-18.5,23.9-8.7C800.9,687.1,792.5,688.2,783.8,688.8z"/>
				<path class="st2" d="M746.4,649.2c-4.2,0.3-19.1-0.6-9.8-5.3C740.5,644.4,749.8,641.3,746.4,649.2z"/>
				<path class="st2" d="M711.9,650.6c-1.7-7,6.7-6.2,11.8-5.3C725.1,651.7,716.1,649.2,711.9,650.6z"/>
				<path class="st3" d="M766.1,664.6c-0.8-3.1,0.3-5.3,0.8-7.9C768.9,659,768.9,661.3,766.1,664.6z"/>
				<path class="st3" d="M797,658.2c0.3,3.6,0.6,7.3-0.3,10.9C796.1,665.5,796.4,661.8,797,658.2z"/>
				<path class="st3" d="M804.5,670.8c-0.3-4.2,0.3-8.4,0.8-12.6C804.8,661.8,807.1,668.8,804.5,670.8z"/>
				<path class="st3" d="M809.3,660.7c0,4.2,0,8.1,0,12.3C808.2,670.5,808.5,665.2,809.3,660.7z"/>
				<path class="st3" d="M800.9,669.4c0.6-3.9-1.1-10.4,0.6-13.2C800.9,660.1,802.6,666.6,800.9,669.4z"/>
				<path class="st3" d="M784.9,663.2c0,2.5,0,5.3,0,8.7C783.8,669.1,784.1,664.9,784.9,663.2z"/>
				<path class="st3" d="M788.5,670c-1.1-2.8-0.6-5.6,0-8.4C788.5,664.3,788.5,667.1,788.5,670z"/>
				<path class="st3" d="M792.8,659.3c0.3,11.8-0.8,11.2-0.6-0.3C792.5,659.3,792.8,659.3,792.8,659.3z"/>
				<path class="st3" d="M681.3,124.6c17.7,0.6,42.9,3.9,28.9-19.4C692.8,99.4,675.4,103.6,681.3,124.6z M668.7,124.6
					c2.2-23-17.1-25.3-35.1-17.7C627.7,132.8,650.7,122.9,668.7,124.6z M619.3,124.3c-3.6-140.9-31.4-131.9-31.7,2.2
					C598,123.2,608.6,125.5,619.3,124.3z M657.2,126.9c-26.9,3.4-69.3-9.8-88.1,12.3c3.4,37-6.5,81.1,3.9,114.8
					c40.7,21.9,90.7,7,135.6,11.2c18.5,4.8,15.7-14,15.4-26.7C713.6,155.2,762.4,116.2,657.2,126.9z M599.1,267.8
					c-0.8,32,1.7,64.3-0.8,96c-11.2-35.1,21-96.8-26.4-107.2C559,386.2,596.6,378.6,710.2,368.8c18.5-23,2.2-67.1,7.6-97.1
					C688.9,260.2,636.1,271.7,599.1,267.8z M622.1,124.6c16.6,4.2,4.5-14,12.6-20.5c43.2-15.4,25.5,16.6,43.8,20.5
					c-7.9-26.4,27.2-33.1,36.5-14.9c-3.9,14.9,11.5,14.6,10.9,27.5c-3.4,44.1,8.4,95.1-6.2,135c-5.6,30.3,12.6,77.5-9,99.1
					c-43.5,0.3-124.6,23.9-141.2-30.6c5.6-68.5-13.8-144.8,2.2-209.1c36.5-13.5-1.7-90.4,26.9-112
					C632.2,24.4,611.7,97.1,622.1,124.6z"/>
				<path class="st2" d="M599.1,267.8c36.8,3.9,89.8-7.6,118.7,4.2c-5.1,30,10.9,74.1-7.6,97.1c-113.7,9.8-151,17.4-138.4-112.3
					c47.4,10.4,15.2,71.9,26.4,107.2C600.8,332.3,598.2,299.8,599.1,267.8z"/>
				<path class="st2" d="M689.5,258.8c9.3,0.6,38.7-33.7,21-32.6C706.6,234.9,678,253.7,689.5,258.8z M602.7,172.3
					c6.7-7.6,48.3-46.6,19.6-37C614.8,146.8,594.9,156.6,602.7,172.3z M593.8,133.9c-2.5,39-2.8,82.5,0.3,121.8
					C595.2,215.3,595.4,174,593.8,133.9z M663.1,256c5.6,5.3,12.1,2.5,15.4-2.8C749.2,175.1,702.7,200.1,663.1,256z M603.3,197.9
					c53-50.5,69.6-99.6,0.8-16C600.5,186.6,600.2,193.1,603.3,197.9z M717,182.7c3.6-24.4-79.1,74.4-70.4,75.8
					C674.6,246.1,698.2,208.3,717,182.7z M600.8,215.6c4.5,16.3,65.4-67.9,75.2-77.7C660.3,128,608.4,200.1,600.8,215.6z
					 M712.8,151.3c-96.5,101.9-122.9,162.2-1.4,17.7C716.1,163.9,720.1,156.1,712.8,151.3z M600.8,239.4c-0.3,4.2,3.6,7.6,6.2,2.8
					c26.4-35.4,71.3-71.6,88.7-106.9C663.4,149.3,622.1,208.8,600.8,239.4z M710.8,135c-21.6,11.5-34.8,38.7-53,55.9
					c-12.9,21.9-52.5,46.6-51.6,67.9c32.8-18.5,55-62,83.9-89.3C694.2,160.3,725.1,141.2,710.8,135z M657.2,126.9
					c105.2-10.9,56.4,28.6,66.8,111.7c0.3,12.6,3.4,31.4-15.4,26.7C663.6,261,613.7,275.9,573,254c-10.4-33.7-0.6-77.7-3.9-114.8
					C587.9,117.3,630.2,130.2,657.2,126.9z"/>
				<path class="st2" d="M619.3,124.3c-10.7,0.8-21.3-1.4-31.7,2.2C587.6-7.9,615.7-15.7,619.3,124.3z"/>
				<path class="st2" d="M653,120.4c1.4-2.2,2.8-11.8-0.8-13.5C651.6,109.7,652.1,118.2,653,120.4z M638.9,108.6
					c-2,3.4-1.7,9.5,0,12.3C640.3,118.7,640.3,111.1,638.9,108.6z M659.4,107.8c-0.3,3.1-0.8,11.8,1.4,14.3
					C662.8,119,662,110.6,659.4,107.8z M645.1,122.4c1.1-3.6,2-11.8-0.6-14.9C643.7,111.7,644,120.4,645.1,122.4z M668.7,124.6
					c-18-1.7-41,8.1-34.8-17.7C651.6,99.6,670.9,101.6,668.7,124.6z"/>
				<path class="st2" d="M706.6,120.4c2-3.1,1.7-10.4-1.1-13.2C705.2,112,705.2,116.5,706.6,120.4z M699.9,120.4
					c3.1-2.5,1.1-12.1-0.8-14.3C698.4,111.1,698.4,115.9,699.9,120.4z M686.7,122.1c0.3-4.8,1.4-11.2-0.8-15.2
					C683.6,110.3,684.7,117.9,686.7,122.1z M692.6,107.2c-0.6,2.2-2.5,12.1,0.6,14.6C694.5,118.2,694.2,109.5,692.6,107.2z
					 M681.3,124.6c-5.9-21.1,11.5-25.3,28.9-19.4C724,128.5,699,125.2,681.3,124.6z"/>
				<path class="st3" d="M713.9,138.9c-41,23-71.9,81.4-108.9,116.2C645.4,233.8,676.8,173.2,713.9,138.9z M710.8,135
					c3.4,0,7,2.8,3.6,6.7c-33.1,37.6-66,75.5-98.8,113.1C571.3,280.9,700.7,138.4,710.8,135z"/>
				<path class="st3" d="M694.8,137.5C667,149,649,188.6,624.9,209.9c-6.2,10.1-24.1,19.1-20.8,32.3
					C634.2,207.1,664.2,172.6,694.8,137.5z M600.8,239.4c21.6-30.6,62.6-90.1,94.9-104.1C700.4,138.6,596.6,262.1,600.8,239.4z"/>
				<path class="st3" d="M625.5,254.8c34-14.6,56.7-63.7,86.2-90.4C714.2,142,642.9,239.7,625.5,254.8z M712.8,151.3
					c7.3,4.8,3.4,12.6-1.4,17.7C589.3,313.8,616.8,252.6,712.8,151.3z"/>
				<path class="st3" d="M603.9,218.4c23.6-26.9,46.3-53.6,69.3-80C654.7,144.3,608.4,198.2,603.9,218.4z M600.8,215.6
					c7.9-15.4,59.2-87.3,75.2-78C667,146.8,604.1,232.7,600.8,215.6z"/>
				<path class="st3" d="M646.5,255.4c12.6,2.2,68.2-62.9,66.8-76.6C690.9,204.3,668.7,229.9,646.5,255.4z M717,182.7
					c-5.9,10.9-68.5,95.1-71.9,70.4C661.1,242.8,706.6,165.9,717,182.7z"/>
				<path class="st3" d="M604.4,193.7c7.6-13.2,57.5-55.9,40.7-55C633.3,156.9,606.1,171.5,604.4,193.7z M603.3,197.9
					c-3.1-5.1-2.8-11.5,0.8-16C672.9,98.2,656.1,147.6,603.3,197.9z"/>
				<path class="st3" d="M665.9,255.7c13.8,0.3,47.4-40.7,47.2-54.2C697.3,219.8,681.6,237.7,665.9,255.7z M663.1,256
					c40.1-56.1,85.9-80.6,15.4-2.8C675.2,258.5,668.7,261.3,663.1,256z"/>
				<path class="st3" d="M593.8,133.9c2,40.1,1.4,81.4,0.3,121.8C590.7,216.4,591.2,172.6,593.8,133.9z"/>
				<path class="st3" d="M631.6,136.4c-11.2-2.2-29.5,20.8-27.5,32C613.1,157.7,622.4,147.3,631.6,136.4z M602.7,172.3
					c-7.6-15.7,12.1-25.5,19.6-37C650.7,125.7,609.5,164.8,602.7,172.3z"/>
				<path class="st3" d="M712.8,227.3c-8.4,9.5-16.6,19.1-25.3,29.2C698.2,256,715.6,237.2,712.8,227.3z M689.5,258.8
					c-13.5,2,23.9-40.1,26.4-31.7C716.7,239.1,700.7,255.7,689.5,258.8z"/>
				<path class="st3" d="M645.1,122.4c-1.4-2-1.7-10.7-0.6-14.9C647.4,110.3,646.2,118.7,645.1,122.4z"/>
				<path class="st3" d="M659.4,107.8c2.5,2.8,3.1,11.2,1.4,14.3C658.6,119.6,659.2,110.9,659.4,107.8z"/>
				<path class="st3" d="M638.9,108.6c1.4,2.5,1.4,10.1,0,12.3C637,118.2,637,112,638.9,108.6z"/>
				<path class="st3" d="M653,120.4c-0.8-2.2-1.4-10.4-0.8-13.5C656.1,108.6,654.4,118.2,653,120.4z"/>
				<path class="st3" d="M692.6,107.2c1.7,2.2,2.2,10.9,0.6,14.6C690,119.3,692,109.5,692.6,107.2z"/>
				<path class="st3" d="M686.7,122.1c-2-4.5-3.1-11.8-0.8-15.2C688.1,110.9,686.9,117.3,686.7,122.1z"/>
				<path class="st3" d="M699.9,120.4c-1.4-4.5-1.4-9.3-0.8-14.3C701,108.3,702.9,117.6,699.9,120.4z"/>
				<path class="st3" d="M706.6,120.4c-1.4-4.2-1.4-8.4-1.1-13.2C708.3,110,708.6,117.6,706.6,120.4z"/>
				<path class="st2" d="M713.9,138.9c-37,34.5-68.5,95.1-108.9,116.2C642,220,672.9,161.7,713.9,138.9z"/>
				<path class="st2" d="M694.8,137.5c-30.3,35.1-60.6,69.6-90.9,104.7c-3.1-13.2,14.6-21.9,20.8-32.3
					C648.8,188.6,666.7,149,694.8,137.5z"/>
				<path class="st2" d="M625.5,254.8c17.4-15.2,88.4-112.5,86.2-90.4C682.2,190.9,659.4,240.5,625.5,254.8z"/>
				<path class="st2" d="M603.9,218.4c4.2-19.9,51.1-73.8,69.3-80C650.2,164.8,627.2,191.1,603.9,218.4z"/>
				<path class="st2" d="M646.5,255.4c22.2-25.5,44.3-50.8,66.8-76.6C715,192.3,659.2,257.7,646.5,255.4z"/>
				<path class="st2" d="M604.4,193.7c2-21.9,29.2-36.5,40.7-55C661.7,137.8,612,180.2,604.4,193.7z"/>
				<path class="st2" d="M665.9,255.7c15.7-18,31.4-35.9,47.2-54.2C713,215.3,679.6,256,665.9,255.7z"/>
				<path class="st2" d="M631.6,136.4c-9.3,10.9-18.5,21.3-27.5,32C602.2,157.2,620.4,134.2,631.6,136.4z"/>
				<path class="st2" d="M712.8,227.3c2.5,10.1-14.6,28.9-25.3,29.2C696.2,246.4,704.6,236.9,712.8,227.3z"/>
				<path class="st3" d="M292,315.2c1.1-58.7-18.2-68.8-4.8-3.4C287.8,314.3,288.1,314.6,292,315.2z M279.4,179.9
					c-0.3,16.8-10.9,48.6,7,57.3C282.5,220,288.7,190,279.4,179.9z M335.8,138.9c-10.7-175.4-42.9-126.9-34.5,12.6
					C312.5,145.1,324.3,142.3,335.8,138.9z M392.8,136.1C307.5,137,269.9,153,289.2,244.7c12.3,43.5-13.5,119.3,28.9,144.3
					c64,12.1,182.2,13.5,151.8-81.7C457.1,243.6,493,124.3,392.8,136.1z M292,317.4c-15.7-7.6-9.5-38.5-12.3-54.4
					c9.3-5.9,8.7-10.7,7-23.6c-26.1-11.5-10.1-71.3,9.5-84.5c13.2-37.6-9.8-92.9,9.5-127.1c28.3-12.9,21.6,24.4,25.3,41.3
					c-9,120.1,69.3,28.1,129.1,86.4c8.1,67.1,12.6,137.5,14.6,205.2c-31.4,46.9-112.3,37.6-161.7,28.6
					C285.9,378.3,297.7,340.7,292,317.4z"/>
				<path class="st2" d="M389.2,385.4c91.5,2.8,74.9-128.8-12.3-108.6C304.4,287.1,317.6,389.6,389.2,385.4z M446.1,241.1
					c0.8-26.1,9.3-67.1-13.8-84.5c-37.3-9.8-99.1-12.9-124.3,20.8c0,27.8-16,129.4,35.6,101c9.5-2.5,9.5-16,20.2-12.1
					c9,10.1,39.6,7.6,47.2-3.4c10.7-1.7,18,9.5,29.8,9.5C457.9,276.7,461.3,244.2,446.1,241.1z M392.8,136.1
					C493,124.3,456.8,243.6,470,307c30.3,95.1-87.8,94-151.8,81.7C275.8,364,301.6,288,289.2,244.5
					C269.9,153.2,307.5,136.7,392.8,136.1z"/>
				<path class="st2" d="M335.8,138.9c-11.8,3.4-23.6,6.2-34.5,12.6C293.2,11.2,325.2-35.9,335.8,138.9z"/>
				<path class="st2" d="M279.4,179.9c9.3,10.1,3.1,40.1,7,57.3C268.5,228.5,279.1,196.7,279.4,179.9z"/>
				<path class="st2" d="M292,315.2c-3.9-0.6-4.2-0.6-4.8-3.4C273.8,246.1,293.2,256.5,292,315.2z"/>
				<path class="st3" d="M378.2,269.7c7.3-1.1,39.6,0.6,26.7-11.5C393.1,252.3,342.8,263.3,378.2,269.7z M443.9,244.2
					c-15.2,15.4-43.8,15.2-2.2,26.1C456,273.9,457.9,242.2,443.9,244.2z M310.8,252.3c-9.8,32.3,37.6,38.2,41.8,9.8
					C345.1,253.4,322.6,251.2,310.8,252.3z M417.2,259.3c39.3-19.6,28.9-36.8,26.1-77.7c-8.7-49.7-99.9-29.5-130.5-9
					c-19.4,106.7,13.2,59.2,42.9,90.9C373.7,254.6,397.3,252.3,417.2,259.3z M446.1,241.1c15.2,3.1,11.8,35.6-5.6,31.2
					c-11.5,0-19.1-10.9-29.8-9.5c-7.3,11.2-38.2,13.8-47.2,3.6c-10.7-3.9-10.4,9.5-20.2,12.1c-51.4,28.3-35.4-73.3-35.4-101
					c25.3-33.7,87-30.6,124.6-20.5C455.7,174.3,447,215,446.1,241.1z"/>
				<path class="st3" d="M389.4,383.4c89.3,2,71.9-125.7-13.2-104.7C306.6,289.9,320.7,387.3,389.4,383.4z M389.2,385.4
					c-71.6,4.2-84.8-98.2-12.3-108.6C464.1,256.5,480.6,387.9,389.2,385.4z"/>
				<path class="st2" d="M376.2,226.2c16.3-4.2,45.5,5.1,55.6-7.6c0.6-16.6,0.6-33.1-20.5-26.9c-28.1,4.5-66.5-2.5-89.5,7.9
					C315.1,242.2,347.6,224.5,376.2,226.2z M417.2,259.3c-13.5-1.4-41.8-12.3-53.3,2.8c-7.9,6.5-8.7-6.5-15.7-7.6
					c-11.5-3.1-26.4-3.1-35.6-8.7c-3.9-25-16-68.8,12.3-82c33.7-8.7,110.9-31.2,118.2,17.7C446.4,222,456.2,240.5,417.2,259.3z"/>
				<path class="st2" d="M310.8,252.3c11.8-1.1,34.2,1.1,41.8,9.8C348.5,290.8,300.7,284.9,310.8,252.3z"/>
				<path class="st2" d="M443.9,244.2c14-2,12.1,29.8-2.2,26.1C399.8,259.3,428.7,259.6,443.9,244.2z"/>
				<path class="st2" d="M378.2,269.7c-40.4-5.3,31.7-24.4,29.8-5.1C399.3,269.4,388.3,268.6,378.2,269.7z"/>
				<path class="st2" d="M404.6,282.4c-6.7-3.1-18.8,0.3-27.2-0.3C377.9,286.6,398.4,282.9,404.6,282.4z M372,375.8
					c10.7,2,27.5,2,37.3-1.4C404.9,373.3,374.8,374.4,372,375.8z M415.5,289.6c-18.8-0.6-42.4-1.4-59.2,2.8
					C360.2,293.3,411.6,291.3,415.5,289.6z M427.6,364.6c-21.1-2.8-52.5-0.8-74.7,2.5C377.9,367.4,402.9,366.6,427.6,364.6z
					 M342,303.1c28.3,1.1,59.8,0.6,87.8-3.4C401.2,299.2,370.1,299.2,342,303.1z M343.1,355c26.7,2.2,66.2,1.7,93.2-3.4
					C405.4,352.5,374,352.5,343.1,355z M333,334.3c35.9-1.4,74.1,0.6,109.2-5.1C406.3,331.5,367.3,328.9,333,334.3z M439.1,341.6
					c-30.6-2-71.3-1.1-101.9,3.9C371.2,344.4,405.4,344.9,439.1,341.6z M333.6,323c34.5,1.1,73.8,0.8,107.5-3.9
					C405.4,320,369.2,320,333.6,323z M337.8,312.4c29.2,3.1,68.8,0.6,98.8-3.1C404,308.2,370.3,310.4,337.8,312.4z M389.4,383.4
					c-68.5,3.9-82.8-93.7-13.2-104.7C461.3,257.9,478.7,385.6,389.4,383.4z"/>
				<path class="st3" d="M427,193.1c-32.8,10.1-116.5-18.5-101.6,32.8C350.4,218.6,450.9,241.1,427,193.1z M376.2,226.2
					c-28.9-1.4-61.5,16-54.7-26.7c23.3-10.4,61.5-3.4,89.5-7.9c21-6.2,21,10.4,20.5,26.9C421.7,231.3,392.5,222,376.2,226.2z"/>
				<path class="st3" d="M337.8,312.4c32.6-2,66.2-4.2,98.8-3.1C406.6,312.9,366.7,315.5,337.8,312.4z"/>
				<path class="st3" d="M333.6,323c35.6-3.1,71.9-3.1,107.5-3.9C407.4,324.2,368.1,324.5,333.6,323z"/>
				<path class="st3" d="M439.1,341.6c-33.7,3.4-67.9,2.5-101.9,3.9C367.8,340.4,408.5,339.9,439.1,341.6z"/>
				<path class="st3" d="M333,334.3c34.2-5.6,73.3-3.1,109.2-5.1C407.4,334.8,369.2,332.9,333,334.3z"/>
				<path class="st3" d="M343.1,355c30.9-2.5,62-2.5,93.2-3.6C409.6,356.7,369.8,357.3,343.1,355z"/>
				<path class="st3" d="M342,303.1c27.8-3.9,59.2-3.9,87.8-3.4C401.8,303.7,370.3,304.2,342,303.1z"/>
				<path class="st3" d="M427.6,364.6c-24.7,2-49.7,2.5-74.7,2.5C375.1,363.7,406.6,361.8,427.6,364.6z"/>
				<path class="st3" d="M415.5,289.6c-3.9,2-55.3,3.6-59.2,2.8C373.2,288.2,397,289.1,415.5,289.6z"/>
				<path class="st3" d="M372,375.8c2.8-1.4,32.6-2.5,37.3-1.4C399.8,377.8,382.7,377.8,372,375.8z"/>
				<path class="st3" d="M404.6,282.4c-6.5,0.3-26.7,4.2-27.2-0.3C386.1,282.6,397.9,279.3,404.6,282.4z"/>
				<path class="st2" d="M427,193.1c24.1,47.7-76.9,25.5-101.6,32.8C310.6,174.6,394.2,203.2,427,193.1z"/>
				<path class="st3" d="M488.5,546.2c7.3-19.1-18.8-22.2-32.6-23C435.5,537.8,478.7,537.2,488.5,546.2z M383.3,536.6
					c-17.1-156.3-44.9-112.8-33.1,12.6C360.8,543.9,371.8,540,383.3,536.6z M341.4,676.7c-5.6,133.6,14.9,163.3,151.3,122.4
					c40.4-32.6,5.6-106.4,13.5-153.5c-5.6-29.5,7.6-69-10.7-92.9c-44.1-25.5-99.6-25.3-144.3-1.4
					C320.1,578.2,347.9,638.2,341.4,676.7z M347.3,550.7c7.6-26.7-23.3-123.2,18.5-114.8c34.2,69.6-23.3,104.4,80.8,97.1
					c4.5-24.4,54.4-8.1,44.3,14.6c33.4,32,9.8,118.2,19.9,165.6c-3.1,26.9,13.8,64.8-10.4,84.2c-44.6,21.9-106.4,30.9-149.9,2
					C338.9,785,325.7,550.4,347.3,550.7z"/>
				<path class="st2" d="M488.8,739c10.4-75.2-54.2-22.2-111.1-38.2c-5.6,0.3-16.8-2.5-14.9,6.2c3.4,25.3-4.2,56.1,6.5,78.6
					C410.8,807.8,508.7,806.9,488.8,739z M486.5,656.8c6.7-25.5,7.6-62-3.9-85.9c-33.7-25-122.9-25.5-129.4,24.4
					c-1.1,37.6-2,110.9,48.8,76.9c7.9,11.8,36.5,7.9,45.5-0.8C462.1,666.6,490.2,697.5,486.5,656.8z M341.4,676.7
					c6.2-38.7-21.3-98.5,9.8-125.5c44.9-23.9,100.2-24.1,144.3,1.4c18.2,23.6,5.1,63.7,10.7,92.9c-7.9,47.4,26.9,121-13.5,153.5
					C356.3,840,336.1,810.3,341.4,676.7z"/>
				<path class="st2" d="M383.3,536.6c-11.5,3.4-22.5,7.3-33.1,12.6C338.4,423.2,366.1,380.9,383.3,536.6z"/>
				<path class="st2" d="M483.2,533c-0.8,2-2.2,3.9-1.4,6.5C484,537.2,484.6,535.8,483.2,533z M462.1,526.2c-2.5,0-6.7,6.2-3.1,7.3
					C460.2,531,461.3,528.8,462.1,526.2z M471.1,527.9c-2,2.2-2.8,5.1-2.8,8.4C470.8,534.1,472.2,530.2,471.1,527.9z M488.5,546.2
					c-9.8-9-53-8.4-32.6-23C469.7,524,496.1,527.1,488.5,546.2z"/>
				<path class="st3" d="M406.8,663.8c-10.1,20.2,22.2,9.8,32.6,10.9C459.6,658.7,416.1,664.6,406.8,663.8z M474.2,676.4
					c18-2.5,14.3-26.1-3.6-24.4C457.9,655.1,458.8,677.5,474.2,676.4z M378.8,679.8c16.8,0.8,15.4-22.5,0.6-24.4
					C359.4,650.9,358.6,682,378.8,679.8z M484.6,654.5c10.1-42.1,9.8-100.2-49.4-97.7c-65.4-1.4-92.6,22.7-77.5,88.7
					c6.7,39.9-0.6-18.2,44.3,23.9c4.8-15.7,27.8-3.9,40.7-8.1c5.6,4.8,6.5,10.1,16.6,5.3C457.6,651.1,473.6,645.5,484.6,654.5z
					 M486.5,656.8c3.6,41-24.7,9.8-39,14.6c-9.3,9-37.6,12.6-45.5,0.8c-50.8,34-50-39-48.8-76.9c6.5-50,95.7-49.4,129.4-24.4
					C494.1,594.7,493.3,631.2,486.5,656.8z"/>
				<path class="st3" d="M364.5,703.4c4.2,25.8-4.8,59.5,7.6,81.7c32.6,15.2,93.5,18,115.6-12.3
					C490.2,655.1,475.9,718.5,364.5,703.4z M488.8,739c19.9,67.9-77.7,68.8-119.6,46.9c-10.7-22.5-3.1-53.3-6.5-78.6
					c-2.2-9,9.3-5.9,14.9-6.2C434.9,716.8,498.9,663.8,488.8,739z"/>
				<path class="st3" d="M471.1,527.9c0.8,2.2-0.3,6.2-2.8,8.4C468.3,533,469.4,530.5,471.1,527.9z"/>
				<path class="st3" d="M462.1,526.2c-1.1,2.5-2,4.8-3.1,7.3C455.7,532.4,459.6,526.2,462.1,526.2z"/>
				<path class="st3" d="M483.2,533c1.4,2.8,0.8,4.2-1.4,6.5C480.9,536.9,482.3,535,483.2,533z"/>
				<path class="st2" d="M420.3,630.9c15.4-2.8,41,4.8,52.2-3.9c0.6-31.7,4.2-37-30.9-33.4c-21.9,3.6-56.7-6.2-72.7,4.8
					C362.8,647.5,384.7,627.9,420.3,630.9z M484.6,654.5c-11.2-9.3-26.9-3.4-25.5,12.1c-5.6,1.4-13.2,4.8-13.5-3.4
					c-10.1-4.5-25.8,0.8-37.9-1.7c-17.7,26.4-19.4-31.4-45.7-0.3c-2.2-0.3-2.2-1.7-2.5-3.1c-7.3-41.3-15.7-95.1,40.7-98
					C476.7,541.1,502.5,587.4,484.6,654.5z"/>
				<path class="st2" d="M378.8,679.8c-20.2,2.2-19.4-28.9,0.6-24.4C394.2,657.3,395.6,680.6,378.8,679.8z"/>
				<path class="st2" d="M474.2,676.4c-15.4,1.1-16.3-21.3-3.6-24.4C488.5,650.3,492.2,673.9,474.2,676.4z"/>
				<path class="st2" d="M406.8,663.8c9.3,0.8,52.8-5.1,32.6,10.9C429,673.6,396.5,684,406.8,663.8z"/>
				<path class="st2" d="M479.8,740.7c-32.6,8.7-73.3,11.2-108.1,3.9C403.5,755.3,447.8,753.9,479.8,740.7z M370.6,766.2
					c31.4,15.2,75.5,10.7,108.6-0.8C443.6,772.7,406.6,777.7,370.6,766.2z M479.5,709.2c-34.5,4.2-75.2,9.5-110.9,1.4
					C402.6,722.7,444.4,717.4,479.5,709.2z M482.6,751.3c-34.8,11.8-74.1,15.7-111.7,4.2C403.2,770.1,449.5,767.3,482.6,751.3z
					 M477.3,719.9c-33.1,3.9-71.9,7.3-106.9,1.7C402.9,731.1,443.9,728,477.3,719.9z M369.5,732.8c34.8,10.4,78.3,9.5,112.3-3.1
					C444.7,739,406.6,739.3,369.5,732.8z M371.5,775.5c28.1,14.6,78.3,12.9,107.5-2C444.4,784.7,406.3,785.9,371.5,775.5z
					 M364.5,703.4c111.7,15.2,125.5-48.3,123.5,69c-22.2,30.6-83.1,27.8-115.6,12.6C359.7,762.9,368.7,729.2,364.5,703.4z"/>
				<path class="st3" d="M371.8,629.5c36.5-8.4,111.4,22.5,98.2-33.7c-9.3-0.8-95.1,0.6-98.2,1.7
					C371.8,607.9,371.8,618.3,371.8,629.5z M420.3,630.9c-35.6-3.1-57.5,16.6-51.4-32.3c16-10.9,50.8-1.1,72.7-4.8
					c35.1-3.6,31.4,1.7,30.9,33.4C461.3,635.7,435.7,628.1,420.3,630.9z"/>
				<path class="st3" d="M371.5,775.5c34.8,10.4,72.7,9,107.5-2C449.8,788.4,399.5,790.1,371.5,775.5z"/>
				<path class="st3" d="M369.5,732.8c37.3,6.5,75.2,5.9,112.3-3.1C447.8,742.6,404.3,743.2,369.5,732.8z"/>
				<path class="st3" d="M477.3,719.9c-33.4,8.1-74.7,11.2-106.9,1.7C405.4,727.2,444.2,723.8,477.3,719.9z"/>
				<path class="st3" d="M482.6,751.3c-32.8,16-79.4,18.8-111.7,4.2C408.5,767.1,447.8,762.9,482.6,751.3z"/>
				<path class="st3" d="M479.5,709.2c-35.1,7.9-76.6,13.5-110.9,1.4C404.3,718.8,444.7,713.7,479.5,709.2z"/>
				<path class="st3" d="M370.6,766.2c35.9,11.8,73,6.7,108.6-0.8C446.1,776.9,402.1,781.4,370.6,766.2z"/>
				<path class="st3" d="M479.8,740.7c-32,13.5-76.1,14.6-108.1,3.9C406.3,751.9,447.3,749.4,479.8,740.7z"/>
				<path class="st2" d="M371.8,629.5c0-10.9,0-21.6,0-32.3c3.1-0.8,89-2.2,98.2-1.7C483.2,652,408.2,621.1,371.8,629.5z"/>
				<path class="st3" d="M837.7,124.9c19.1-2.8,37.9,1.1,29.5-23.9C858.4,0.6,838.5,75.5,837.7,124.9z M816.6,258.5
					c-4.5,100.2,32,137.8,133.9,107.5c32.8-31.2,36.8-90.1,34.5-133.9c-7.9-103.6-53-117.6-146.8-104.1
					C823.9,167,816.6,211.6,816.6,258.5z M871.6,121c85-1.4,107.8,28.3,115.9,112.8C996,339.3,953,407,840.5,368
					c-46.9-66.2-23.9-168.4-5.9-241.4C840.2,36.5,865.4,12.9,871.6,121z"/>
				<path class="st2" d="M871.1,128.5c-7,0-34.8,20.5-38.2,27.5C845.5,147.6,857,135.6,871.1,128.5z M899.7,144.5
					c-78.9,2.2-71.3,124.9,8.4,116.5C983.9,256,978.3,141.2,899.7,144.5z M870.5,346.1c12.6,21.6,48.8,13.5,69.9,10.1
					c25-9.5,37.3-74.7,24.4-97.1c-27.5,5.1-61.5,23.3-92.9,7.9c-16.6-30.6-62,33.7-16.8,20.8c-0.6,9-30.6,22.7-12.3,32.8
					c26.9-3.1,19.1-0.6,5.3,16.3C839.1,353.9,861.2,354.8,870.5,346.1z M816.6,258.5c0-46.6,7.3-91.5,21.3-130.8
					c94-13.2,139.2,0.6,146.8,104.1c2.2,43.8-1.7,102.7-34.5,133.9C848.6,396.3,812.1,359,816.6,258.5z"/>
				<path class="st2" d="M837.7,124.9c0.6-49.4,20.8-124.1,29.5-23.9C875.8,125.7,857,122.1,837.7,124.9z"/>
				<path class="st3" d="M839.6,313.2c4.8,13.5,27.2-1.4,29.8-11.2C872.5,280.7,839.3,300.3,839.6,313.2z M844.4,286.8
					c10.9,2.2,35.1-21.6,16.8-25.3C850.8,258.8,825,284.6,844.4,286.8z M856.5,348.9c9.8,1.7,33.7-21.9,15.7-25.3
					C861.5,321.1,834.6,347.7,856.5,348.9z M959.7,259.1c-25.5,18.5-60.6,19.6-89.5,9.8c-1.4,10.1-25.3,23.3-3.9,21.9
					c18.8,6.5-8.4,21.3-2.2,31.4c28.6-5.3,10.9,14,10.1,25.5c12.3,15.4,69.6,14.9,78.3-3.4C959.5,320,980.8,278.7,959.7,259.1z
					 M870.5,346.1c-9.5,8.7-31.7,7.9-22.5-9.3c14-17.1,21.6-19.4-5.3-16.3c-18.2-10.4,11.8-24.1,12.3-32.8
					c-45.2,12.9,0.6-51.4,16.8-20.8c31.4,15.4,65.7-2.8,92.9-7.9c12.9,22.5,0.3,87.6-24.4,97.1C919.3,359.5,883.1,367.4,870.5,346.1
					z"/>
				<path class="st3" d="M907.5,147.1c-109.5-1.4-53,160.5,32.3,99.4C982.5,217,955,146.2,907.5,147.1z M899.7,144.5
					c78.6-3.4,84.2,111.4,8.4,116.5C828.4,269.7,820.8,146.8,899.7,144.5z"/>
				<path class="st3" d="M871.1,128.5c-14,7.3-25.5,19.1-38.2,27.5C836.3,149,864,128.5,871.1,128.5z"/>
				<path class="st2" d="M956.7,266.1c2.2,1.1,4.5,1.1,6.7,0C961.2,264.7,958.9,264.9,956.7,266.1z M964.5,270.8
					c-5.6-4.5-19.4-0.3-18.8,0.3C951.9,271.1,958.1,271.4,964.5,270.8z M885.7,276.5c-5.3-1.4-12.3-2.5-16.8,0.3
					C873.9,278.7,880,278.1,885.7,276.5z M893.8,353.1c10.4,1.4,23.6,1.4,33.7-0.6C924.9,351.4,899.7,351.4,893.8,353.1z
					 M964.2,275.6c-12.9-0.8-30.9-3.1-42.4,1.4C935.6,276.2,951,279.3,964.2,275.6z M878.4,349.4c19.1,2,43.5,0.8,64-0.6
					C921.3,347.5,898.8,347.2,878.4,349.4z M951.9,333.7c-20.2-3.4-46.6-0.8-68.5,0C904.2,336.2,930,334.6,951.9,333.7z
					 M955.3,320.5c-21.6-2-48.6-1.4-71.3,0.6C888.2,322.5,951.9,321.9,955.3,320.5z M945.4,344.7c-2-1.1-39-2-69,0
					C897.7,347.2,923.3,345.8,945.4,344.7z M953.3,327.3c-21.3-3.9-45.2,0.3-67.6-0.8C898.3,331.7,933.6,327,953.3,327.3z
					 M950.5,339.6c-21.9-2.8-49.4-2-71.6,0.3C882.3,340.7,930.8,341.6,950.5,339.6z M874.7,304.8c26.1,2.2,56.7,2,82.8-0.8
					C953.3,303.1,878.4,303.7,874.7,304.8z M961.2,298.3c-27.8-2-58.1-0.8-86.2,0.6C902.8,300.9,933.6,300.9,961.2,298.3z
					 M868.5,311.5c30.3-0.6,61.2,1.4,90.9-1.4C930.3,308.7,897.2,307.6,868.5,311.5z M874.4,293c26.9,2.2,60.1,1.7,88.4-0.3
					C934.2,290.2,903.6,291.9,874.4,293z M865.2,316c28.3,2,62,1.1,91.2-0.6C926.9,313.5,894.6,314.3,865.2,316z M962,281.8
					c-29.8-1.7-67.4-2.8-97.1,1.4C897.2,282.6,930.3,284.3,962,281.8z M964.2,286.8c-34.2-1.1-72.7-2.2-106.4,1.7
					C892.9,288,929.7,289.9,964.2,286.8z M959.7,259.1c21,19.6-0.3,60.9-7.3,85c-8.7,18.5-66.2,18.8-78.3,3.4
					c0.8-11.5,18.5-30.9-10.1-25.5c-6.2-10.1,21-25,2.2-31.4c-21.3,1.4,2.8-11.8,3.9-21.9C899.4,278.7,934.2,277.6,959.7,259.1z"/>
				<path class="st2" d="M856.5,348.9c-21.9-1.1,5.1-28.1,15.7-25.3C890.1,327.3,866.3,350.8,856.5,348.9z"/>
				<path class="st2" d="M844.4,286.8c-19.6-2.2,6.5-28.1,16.8-25.3C879.5,265.2,855.3,289.1,844.4,286.8z"/>
				<path class="st2" d="M839.6,313.2c-0.6-12.9,32.8-32.6,29.8-11.2C866.8,311.8,844.4,326.7,839.6,313.2z"/>
				<path class="st2" d="M903.3,185.8c-13.8,4.2-49.7-10.4-47.7,10.4c2,7.3-5.1,25.5,5.6,25.5c27.2-3.6,67.1,7.3,88.4-4.2
					C955.8,172.9,936.5,188,903.3,185.8z M907.5,147.1c109.2,14.9,27.8,169.2-49.4,91.5C825.6,201,857,143.4,907.5,147.1z"/>
				<path class="st3" d="M964.2,286.8c-34.5,3.1-71.3,0.8-106.4,1.7C891.5,284.6,930,286,964.2,286.8z"/>
				<path class="st3" d="M962,281.8c-31.7,2.5-64.8,0.8-97.1,1.4C894.6,279,932.5,280.1,962,281.8z"/>
				<path class="st3" d="M865.2,316c29.5-1.7,61.7-2.5,91.2-0.6C927.2,317.2,893.5,318,865.2,316z"/>
				<path class="st3" d="M874.4,293c29.2-1.1,59.5-2.8,88.4-0.3C934.5,294.7,901.4,295.5,874.4,293z"/>
				<path class="st3" d="M868.5,311.5c28.6-3.9,61.7-2.8,90.9-1.4C929.7,313.2,898.8,311,868.5,311.5z"/>
				<path class="st3" d="M961.2,298.3c-27.5,2.2-58.7,2.5-86.2,0.6C903.1,297.5,933.6,296.7,961.2,298.3z"/>
				<path class="st3" d="M874.7,304.8c3.6-1.1,78.6-2,82.8-0.8C931.4,306.8,900.8,307,874.7,304.8z"/>
				<path class="st3" d="M950.5,339.6c-19.6,2-68.2,1.1-71.6,0.3C901.1,337.6,928.6,336.8,950.5,339.6z"/>
				<path class="st3" d="M953.3,327.3c-19.6-0.6-55.3,4.5-67.6-0.8C908.1,327.5,932,323.6,953.3,327.3z"/>
				<path class="st3" d="M945.4,344.7c-22.2,1.1-47.7,2.5-69,0C906.7,342.7,943.5,343.5,945.4,344.7z"/>
				<path class="st3" d="M955.3,320.5c-3.4,1.1-67.1,1.7-71.3,0.6C907,319.1,933.9,318.8,955.3,320.5z"/>
				<path class="st3" d="M951.9,333.7c-22.2,0.8-47.7,2.5-68.5,0C905.3,332.9,931.7,330.6,951.9,333.7z"/>
				<path class="st3" d="M878.4,349.4c20.5-2,42.9-2,64-0.6C921.9,350,897.4,351.4,878.4,349.4z"/>
				<path class="st3" d="M964.2,275.6c-13.2,3.4-28.3,0.6-42.4,1.4C933.4,272.5,951,275.1,964.2,275.6z"/>
				<path class="st3" d="M893.8,353.1c5.9-1.7,31.2-1.7,33.7-0.6C917.4,354.8,904.2,354.8,893.8,353.1z"/>
				<path class="st3" d="M885.7,276.5c-5.6,1.4-11.8,2-16.8,0.3C873.3,273.9,880.3,275.3,885.7,276.5z"/>
				<path class="st3" d="M964.5,270.8c-6.5,0.6-12.3,0.3-18.8,0.3C944.9,270.6,958.6,266.4,964.5,270.8z"/>
				<path class="st3" d="M956.7,266.1c2.2-1.1,4.5-1.4,6.7,0C961.2,267.2,958.9,267.2,956.7,266.1z"/>
				<path class="st3" d="M858.1,219.2c34.2-7,101.9,22.2,89-31.2c-5.6-0.8-86.7-0.6-89,0.3C858.1,198.7,858.1,208.8,858.1,219.2z
					 M903.3,185.8c33.4,2.2,52.5-12.9,46.6,31.7c-21.3,11.5-61.2,0.6-88.4,4.2c-10.7,0-3.6-18.2-5.6-25.5
					C853.7,175.4,889.6,190,903.3,185.8z"/>
				<path class="st2" d="M858.1,219.2c0-10.7,0-20.8,0-30.6c2.5-0.8,83.4-1.1,89-0.3C959.7,241.7,892.1,212.5,858.1,219.2z"/>
			</g>
		</g>
	</g>
</g>
<g>
	<defs>
		<rect id="SVGID_7_" x="428" y="16" width="400" height="70"/>
	</defs>
	<clipPath id="SVGID_8_">
		<use xlink:href="#SVGID_7_"  style="overflow:visible;"/>
	</clipPath>
	<polygon class="st4" points="577.6,46.1 585,46.1 596.9,64.6 608.9,46.1 616.1,46.1 616.1,85.4 609.3,85.4 609.3,57.2 596.9,75.7 
		596.7,75.7 584.4,57.2 584.4,85.4 577.6,85.4 	"/>
	<path class="st4" d="M568.9,80.6l-20.2-45.9c1.9-1,3.3-3.1,3.3-5.4c0-3.3-2.7-6-6-6c-3.3,0-6,2.7-6,6c0,2.3,1.4,4.5,3.3,5.4
		L523,80.6c-0.8,1.8,0,3.7,1.8,4.5c1.8,0.8,3.7,0,4.5-1.8l4.3-9.5h25.1l4.3,9.5c0.6,1.4,1.8,1.9,3.1,1.9c0.4,0,1,0,1.4-0.2
		C568.9,84.2,569.7,82.3,568.9,80.6z M536.4,66.9l9.5-21.6l9.5,21.6H536.4z"/>
	<path class="st4" d="M521.4,16.6c0.2-0.4,1-0.6,1.4-0.4c0.6,0.2,0.6,1,0.4,1.4c-1.9,3.3-3.1,7.2-3.1,11.3c0,3.7,1,7.4,2.7,10.5
		c0.2,0.2,0.2,0.6,0,0.8c-0.2,0.2-0.2,0.4-0.6,0.6c-0.2,0-0.4,0.2-0.6,0.2c-0.4,0-0.8-0.2-1-0.6c-1.9-3.5-2.9-7.6-2.9-11.5
		C518.1,24.6,519.3,20.3,521.4,16.6"/>
	<path class="st4" d="M532.1,37c0.2,0,0.4,0,0.6-0.2c0.6-0.2,0.8-0.8,0.4-1.4c-1.2-1.9-1.8-4.3-1.8-6.6c0-2.5,0.8-5.2,2.3-7.4
		c0.4-0.4,0.2-1.2-0.4-1.4c-0.6-0.4-1.2-0.2-1.6,0.4c-1.8,2.5-2.5,5.4-2.5,8.6c0,2.5,0.8,5.2,1.9,7.6C531.6,36.8,531.8,37,532.1,37"
		/>
	<path class="st4" d="M569.9,16.6c-0.2-0.4-1-0.6-1.4-0.4c-0.6,0.2-0.6,1-0.4,1.4c1.9,3.3,3.1,7.2,3.1,11.3c0,3.7-1,7.4-2.7,10.5
		c-0.2,0.2-0.2,0.6,0,0.8c0,0.2,0.2,0.4,0.6,0.6c0.2,0,0.4,0.2,0.6,0.2c0.4,0,0.8-0.2,1-0.6c1.9-3.5,2.9-7.6,2.9-11.5
		C573.2,24.6,572,20.3,569.9,16.6"/>
	<path class="st4" d="M559,37c-0.2,0-0.4,0-0.6-0.2c-0.6-0.2-0.8-0.8-0.4-1.4c1.2-1.9,1.8-4.3,1.8-6.6c0-2.5-0.8-5.2-2.3-7.4
		c-0.4-0.4-0.2-1.2,0.4-1.4c0.6-0.4,1.2-0.2,1.6,0.4c1.8,2.5,2.5,5.4,2.5,8.6c0,2.5-0.8,5.2-1.9,7.6C559.8,36.8,559.4,37,559,37"/>
	<path class="st4" d="M487.2,86l10.5-15.2L508.2,86h8.4L502,65.6l14-19.4h-8.2l-9.9,14.4L488,46.1h-8.2l14,19.6L479.2,86H487.2z
		 M474,86v-6.2h-22.9V69.1h20v-6.2h-20V52.4h22.6v-6.2h-29.6V86H474z"/>
	<polygon class="st4" points="645.7,84.1 645.7,49.8 658.3,49.8 658.3,47.3 630.1,47.3 630.1,49.8 643,49.8 643,84.1 	"/>
	<path class="st4" d="M681.1,82.1c-9.1,0-15.6-7.4-15.6-16.5v-0.2c0-9.1,6.4-16.3,15.6-16.3s15.6,7.4,15.6,16.5v0.2
		C696.6,74.9,690,82.1,681.1,82.1z M680.9,84.6c11.1,0,18.5-8.9,18.5-18.9v-0.2c0-9.9-7.2-18.9-18.3-18.9
		c-11.1,0-18.5,8.9-18.5,18.9v0.2C662.6,75.9,669.8,84.6,680.9,84.6z"/>
	<path class="st4" d="M726.2,82.1c-9.1,0-15.6-7.4-15.6-16.5v-0.2c0-9.1,6.4-16.3,15.6-16.3c9.1,0,15.6,7.4,15.6,16.5v0.2
		C741.8,74.9,735.1,82.1,726.2,82.1z M726,84.6c11.1,0,18.5-8.9,18.5-18.9v-0.2c0-9.9-7.2-18.9-18.3-18.9
		c-11.1,0-18.5,8.9-18.5,18.9v0.2C707.7,75.9,714.9,84.6,726,84.6z"/>
	<polygon class="st4" points="778.7,84.1 778.7,81.5 757.1,81.5 757.1,47.3 754.4,47.3 754.4,84.1 	"/>
	<path class="st4" d="M799.5,84.6c7,0,12.1-4.1,12.1-9.9v-0.2c0-5.2-3.5-8.4-12.1-10.1c-8.8-1.8-10.7-4.1-10.7-8v-0.2
		c0-3.9,3.5-7,8.9-7c4.1,0,7.4,1.2,10.9,4.1l1.8-2.1c-3.7-2.9-7.2-4.5-12.6-4.5c-6.8,0-11.9,4.3-11.9,9.7v0.2
		c0,5.6,3.5,8.6,12.2,10.3c8.4,1.8,10.3,3.9,10.3,7.8v0.2c0,4.3-3.7,7.2-9.3,7.2c-5.4,0-9.1-1.8-13.2-5.4l-1.8,1.9
		C789.2,82.7,793.7,84.6,799.5,84.6z"/>
	<path class="st5" d="M693.1,29.8h0.8l-3.5,8.6c-0.8,1.8-1.6,2.3-2.7,2.3c-0.6,0-1.2-0.2-1.6-0.4l0.2-0.8c0.4,0.2,0.8,0.4,1.4,0.4
		c0.8,0,1.4-0.6,1.9-1.9l-3.9-8.2h1l3.5,7.4L693.1,29.8z M683.8,34.1c0-2.1-1.6-3.5-3.3-3.5s-3.3,1.4-3.3,3.5s1.6,3.5,3.3,3.5
		C682.4,37.6,683.8,36.2,683.8,34.1z M677.2,36.2V38h-0.8V26.3h0.8v5.4c0.8-1.2,1.8-1.9,3.3-1.9c1.9,0,3.9,1.6,3.9,4.3
		c0,2.7-1.9,4.3-3.9,4.3C678.9,38.2,678,37.4,677.2,36.2z"/>
	<path class="st5" d="M712.8,16.2l1,2.5l0.4-0.8h2.3c0.2-0.4,0.4-0.6,1-0.6c0.6,0,1,0.4,1,1c0,0.6-0.4,1-1,1c-0.4,0-0.8-0.2-1-0.6
		h-1.9l-0.8,1.8l-1-2.7l-1,2.5l-1.2-2.5l-1,2.5l-1.2-2.5l-0.4,0.8h-2.3c0,0.2-0.4,0.4-0.6,0.6v1.4l1.9,0.6l-2.5,0.8l2.5,0.8l-2.5,1
		l2.5,0.8l-2.5,0.8l0.6,0.2v1.8c0.2,0,0.4,0.4,0.6,0.6h1.9l0.8-1.8l1,2.5l1-2.5l1,2.5l1-2.5l1,2.5l0.4-0.8h2.3
		c0.2-0.4,0.4-0.6,1-0.6c0.6,0,1,0.4,1,1c0,0.4-0.2,0.8-0.6,1v1.4l1.9,0.6l-2.5,0.8l2.5,0.8l-2.5,0.8l2.5,0.8l-2.5,0.8l0.6,0.2v1.8
		c0.4,0.2,0.6,0.4,0.6,1c0,0.6-0.4,1-1,1c-0.4,0-0.8-0.2-1-0.6h-1.9l-0.8,1.8l-1-2.5l-1,2.5l-1-2.5l-1,2.5l-1-2.5l-0.4,0.8h-2.3
		c-0.2,0.4-0.4,0.6-1,0.6c-0.6,0-1-0.4-1-1c0-0.6,0.4-1,1-1c0.4,0,0.8,0.2,1,0.6h1.9l0.8-1.8l1,2.5l1-2.5l1,2.5l1-2.5l1,2.5l0.4-0.8
		h2.3l0.6-0.6v-1.4l-1.9-0.6l2.5-0.8l-2.5-0.8l2.5-0.8l-2.5-0.8l2.5-0.8l-0.6-0.2V29c-0.2,0-0.6-0.4-0.6-0.6h-1.9l-0.8,1.8l-1-2.5
		l-1,2.5l-1-2.5l-1,2.5l-1-2.5l-0.4,0.8h-2.3c-0.2,0.4-0.4,0.6-1,0.6c-0.6,0-1-0.4-1-1c0-0.4,0.2-0.8,0.6-1v-1.4l-1.9-0.6l2.5-0.8
		l-2.3-0.8l2.5-0.8l-2.5-0.8l2.5-0.8l-0.6-0.2v-1.8c-0.4-0.2-0.6-0.4-0.6-1c0-0.6,0.4-1,1-1c0.4,0,0.8,0.2,1,0.6h1.9l0.8-1.8l1,2.5
		l1-2.5l1,2.5L712.8,16.2z"/>
	<path class="st5" d="M722.7,27.7v9.5c0,0.2-0.2,0.4-0.4,0.4h-0.6c-0.2,0-0.4,0-0.4-0.4v-9.5c0-0.2,0-0.4,0.4-0.4h0.6
		C722.7,27.3,722.7,27.5,722.7,27.7z M722.9,24.4c0,0.8-0.2,0.8-0.8,0.8h-0.2c-0.6,0-0.8-0.2-0.8-0.8s0.2-0.8,0.8-0.8h0.2
		C722.7,23.8,722.9,23.8,722.9,24.4z"/>
	<path class="st5" d="M729.3,28.2c-2.1,0-2.9,1-2.9,2.9v2.5c-0.2,0.8,0.2,1.6,0.8,1.9c0.6,0.6,1.4,0.8,1.9,0.6c1,0,1.9-0.2,2.9-0.6
		v-6.4c0-0.4,0-0.4-0.4-0.6C730.9,28.4,730.1,28.2,729.3,28.2z M729.3,27.1c1.2,0,2.3,0.2,3.3,0.6c0.6,0.2,0.8,0.4,0.8,1.2v9.3
		c0,2.5-1.2,4.3-4.3,4.3c-1.6,0.2-3.1-0.8-3.9-2.1c0,0-0.2-0.2,0-0.4c0-0.2,0.2-0.2,0.2-0.2l0.4-0.2c0,0,0.2-0.2,0.4,0
		c0.2,0,0.2,0.2,0.2,0.2c0.6,1,1.6,1.8,2.7,1.6c1.9,0,2.9-1.2,2.9-2.9v-1.2c-1,0.4-2.1,0.6-3.1,0.6c-2.7,0-3.9-1.4-3.9-3.9v-2.7
		C725,28.4,726.4,27.1,729.3,27.1L729.3,27.1z"/>
	<path class="st5" d="M740.4,27.1c2.7,0,3.9,1.4,3.9,3.9v6.2c0,0.2-0.2,0.4-0.4,0.4h-0.6c-0.2,0-0.4,0-0.4-0.4V31
		c0-1.8-0.8-2.7-2.7-2.7c-1,0-1.8,0.2-2.7,0.4c-0.2,0-0.4,0.2-0.4,0.6v8c0,0.2,0,0.4-0.4,0.4h-0.6c-0.2,0-0.4,0-0.4-0.4v-8.4
		c0-0.6,0.2-0.8,0.8-1.2C737.9,27.3,739.2,27.1,740.4,27.1z"/>
	<path class="st5" d="M750.5,32.7c-2.1,0-2.9,0.6-2.9,1.9s0.6,1.9,2.9,1.9c0.8,0,1.6,0,2.3-0.4c0.4-0.2,0.4-0.2,0.4-0.6v-2.7
		C752.2,32.7,751.5,32.7,750.5,32.7z M750.7,27.1c3.1,0,3.9,1.8,3.9,3.9v5.2c0,0.8-0.2,1-0.8,1.2c-1,0.4-2.1,0.6-3.3,0.6
		c-3.5,0-4.3-1.2-4.3-3.1c0-2.3,1.2-3.1,4.3-3.1c0.8,0,1.8,0,2.5,0.2v-1c0-1.6-0.6-2.7-2.7-2.7c-1.2-0.2-2.1,0.4-2.7,1.4
		c-0.2,0.2-0.2,0.2-0.6,0.2l-0.4-0.2c-0.2-0.2-0.4-0.2-0.2-0.6C747.4,27.7,748.9,26.9,750.7,27.1z"/>
	<path class="st5" d="M758.1,37.4h-0.6c-0.2,0-0.4,0-0.4-0.4V23.2c0-0.2,0-0.4,0.4-0.4h0.6c0.2,0,0.4,0,0.4,0.4v14
		C758.5,37.4,758.3,37.4,758.1,37.4z"/>
	<path class="st5" d="M770.9,16.2l1,2.5l0.4-0.8h2.3c0.2-0.4,0.4-0.6,1-0.6c0.6,0,1,0.4,1,1c0,0.6-0.4,1-1,1c-0.4,0-0.8-0.2-1-0.6
		h-1.9l-0.8,1.8l-1-2.7l-1,2.5l-1.2-2.5l-1,2.5l-1.2-2.5l-0.2,0.8h-2.3c0,0.2-0.4,0.4-0.6,0.6v1.4l1.9,0.6l-2.5,0.8l2.5,0.8l-2.7,1
		l2.5,0.8l-2.5,0.8l0.6,0.4v1.8c0.2,0,0.4,0.4,0.6,0.6h1.9l0.8-1.8l1,2.5l1-2.5l1,2.5l1-2.5l1,2.5l0.8-0.8h2.3
		c0.2-0.4,0.4-0.6,1-0.6c0.6,0,1,0.4,1,1c0,0.4-0.2,0.8-0.6,1v1.4l1.9,0.6l-2.5,0.8l2.5,0.8l-2.5,0.8l2.5,0.8l-2.5,1l0.6,0.2v1.8
		c0.4,0.2,0.6,0.4,0.6,1c0,0.6-0.4,1-1,1c-0.4,0-0.8-0.2-1-0.6h-1.9l-0.8,1.8l-1-2.5l-1,2.5l-1-2.5l-1,2.5l-1-2.5l-0.6,0.8h-2.3
		c-0.2,0.4-0.4,0.6-1,0.6s-1-0.4-1-1c0-0.6,0.4-1,1-1c0.4,0,0.8,0.2,1,0.6h1.9l0.8-1.8l1,2.5l1-2.5l1,2.5l1-2.5l1,2.5l0.4-0.8h2.3
		l0.6-0.6v-1.4l-1.9-0.6l2.5-0.8l-2.5-0.8l2.5-0.8l-2.5-0.8l2.5-0.8l-0.6-0.2v-1.8c-0.2,0-0.6-0.4-0.6-0.6h-1.9l-0.8,1.8l-1-2.5
		l-1,2.5l-1-2.5l-1,2.5l-1-2.5l-0.4,0.4h-2.3c-0.2,0.4-0.4,0.6-1,0.6s-1-0.4-1-1c0-0.4,0.2-0.8,0.6-1v-1.4l-1.9-0.6l2.5-0.8
		l-2.5-0.8l2.5-0.8l-2.5-0.8l2.5-0.8l-0.6-0.2v-1.8c-0.4-0.2-0.6-0.4-0.6-1c0-0.6,0.4-1,1-1c0.4,0,0.8,0.2,1,0.6h1.9l0.8-1.8l1,2.5
		l1-2.5l1,2.5L770.9,16.2z"/>
	<path class="st5" d="M782.4,25.5v1.9h2.9c0.2,0,0.4,0,0.4,0.4v0.6c0,0.2,0,0.4-0.4,0.4h-2.9v5.1c0,2.3,0.8,2.7,2.9,2.7
		c0.2,0,0.4,0.2,0.4,0.4v0.6c0,0.2,0,0.4-0.4,0.4c-3.1,0-4.1-0.8-4.1-4.1v-5.1h-1.9c-0.2,0-0.4,0-0.4-0.4v-0.4c0-0.2,0-0.4,0.4-0.4
		h1.9v-2.1c0-0.2,0.2-0.4,0.4-0.4h0.4C782.2,25.3,782.4,25.3,782.4,25.5z"/>
	<path class="st5" d="M795.4,28.1v8.4c0,0.6-0.2,0.8-0.8,1.2c-1.2,0.4-2.5,0.8-3.7,0.6c-2.7,0-3.9-1.4-3.9-3.9v-6.2
		c0-0.2,0-0.4,0.4-0.4h0.6c0.2,0,0.4,0,0.4,0.4v6.2c-0.2,0.8,0.2,1.6,0.8,2.1c0.6,0.6,1.4,0.8,2.1,0.6c1,0,1.8-0.2,2.5-0.4
		c0.2,0,0.4-0.4,0.4-0.6v-7.8c0-0.2,0-0.4,0.4-0.4h0.6C795.2,27.7,795.4,27.7,795.4,28.1L795.4,28.1z"/>
	<path class="st5" d="M803.6,23.6v0.6c0,0.2,0,0.4-0.4,0.4c-2.1,0-2.9,0.6-2.9,2.7v0.6h2.9c0.2,0,0.4,0,0.4,0.4v0.6
		c0,0.2,0,0.4-0.4,0.4h-2.9v8.6c0,0.2,0,0.4-0.4,0.4h-0.6c-0.2,0-0.4,0-0.4-0.4v-8.9h-1.8c-0.2,0-0.4,0-0.4-0.4v-0.4
		c0-0.2,0-0.4,0.4-0.4h1.8v-0.6c0-2.7,1.2-3.9,4.1-3.9h0.2C803.4,23.2,803.6,23.2,803.6,23.6z"/>
	<path class="st5" d="M810.6,23.6v0.6c0,0.2,0,0.4-0.4,0.4c-2.1,0-2.9,0.6-2.9,2.7v0.6h2.9c0.2,0,0.4,0,0.4,0.4v0.6
		c0,0.2,0,0.4-0.4,0.4h-2.9v8.6c0,0.2,0,0.4-0.4,0.4h-0.6c-0.2,0-0.4,0-0.4-0.4v-8.9h-1.8c-0.2,0-0.4,0-0.4-0.4v-0.4
		c0-0.2,0-0.4,0.4-0.4h1.8v-0.6c0-2.7,1.2-3.9,4.1-3.9h0.2C810.4,23.2,810.6,23.2,810.6,23.6z"/>
</g>
</svg>
